<svg xmlns="http://www.w3.org/2000/svg" width="100" height="50" viewBox="50 0 100 50"><g fill="#FF5000"><path d="M69 14.7a17.2 17.2 0 000-1.9V12l.2-.8c.5-1 1.3-1.4 2.3-1 .7.2 1.1.5 1.4.8.2.4.2 1 .2 1.7a89.6 89.6 0 01-.6 7.6c0 .3.1.7.3 1 .2.4.2.7.2 1l-.5.9c-.3.3-.5.6-.5 1l-.5 2.4a7 7 0 000 2.5c.1.7 0 1.2-.2 1.6-.2.5-.6.9-1.1 1.2-.3.3-.7.4-1 .3-.3-.1-.6-.3-.7-.8l-.4-1.3v-1.4V27v-1.7c-.1-.4-.3-.6-.7-.5a147.7 147.7 0 01-3.7.7c-.6.1-.8.5-.9 1a19 19 0 00-.3 2.6 3 3 0 01-.8 1.9c-.4.4-1 .8-1.6 1h-.7c-.2-.1-.3-.3-.3-.6a79.4 79.4 0 00-.3-5c0-.4-.3-.8-.8-1.1-.7-.6-.7-1.1 0-1.6.5-.4.9-.8 1-1.2.1-.4.2-1 .1-1.5v-3c0-1-.2-1.9-.6-2.9-.1-.5 0-1 .2-1.3.2-.4.5-.6 1-.8h1.5c.5.2 1 .6 1 1 .3.6.4 1.2.5 1.9a35 35 0 01.3 5V22c.1.4.4.6.9.7.7 0 1.3 0 2-.2a43.8 43.8 0 002.4-1l.2-.5c0-1 .2-2.1.4-3.2.2-1 .2-2.1.2-3.2zM84.3 29a11.8 11.8 0 01-4-.7c-.6-.2-1.2-.6-1.7-1.2l-1.4-1.9c-.5-.6-.8-1.4-.9-2.3a17 17 0 01.5-6.5 14.3 14.3 0 013.4-5.6c.5-.6 1.1-1 1.8-1.2l.4-.1h.8c.6.4 1.2.6 2 .6a5.6 5.6 0 001-.1h1.4c2.2 0 4 .6 5.4 2 .7.8 1.3 1.7 1.7 2.8.3 1 .5 2.3.5 3.5a11.1 11.1 0 01-5.4 9.1 10 10 0 01-5.5 1.5zm2.3-16.7a8.2 8.2 0 00-4.8 1.6c-.4.3-.7.7-1 1.2a13.8 13.8 0 00-1.3 8c0 .3.1.7.3 1 .1.4.4.7.8 1l1.5.8a4.4 4.4 0 003 .3c.8-.2 1.6-.6 2.4-1a8.1 8.1 0 003.7-4c.4-1 .6-2 .6-3.4 0-2-.5-3.5-1.9-4.5-.8-.7-1.9-1-3.3-1zM114.5 16.8c-1.1 3.6-3.1 6.7-6 9.4-.8.7-1.7 1.2-2.6 1.5-.9.3-1.8.4-2.8.4-.8 0-1.5-.2-2-.5a5.4 5.4 0 01-2.6-3.7c-.3-1.8-.4-3.6-.2-5.3a25.7 25.7 0 011.3-6c.3-.5.5-.8.8-1l1-.2c.6 0 1.1.2 1.4.5.4.3.5.7.5 1.1 0 .3 0 .6-.2.9l-.2.8a98.5 98.5 0 00-1.2 6 11 11 0 00.4 3c.2 1.1 1 1.4 2.1 1 1-.4 1.8-1 2.4-1.6.6-.6 1.2-1.3 1.7-2.1 1-1.5 1.8-3 2.4-4.6.6-1.6.9-3.3.9-5V11l.1-.9c.1-.2.3-.4.7-.6.3-.1.6-.1.8 0l.6.4c.7.5 1 1.1 1.1 2a10.8 10.8 0 01-.4 5zM120.4 24.8a2 2 0 01-1.5-.8 2 2 0 01-.5-1.6l.3-1.3.2-1.4V19l.2-.7c.3-1.7.4-3.3.4-5V8.7a16.2 16.2 0 010-2.1c0-.4.1-.7.4-1 .2-.1.5-.3.9-.3.2 0 .4 0 .6.2.9.3 1.5.9 1.8 1.7l.2.4.2.4.6 1.3.6 1.5.6 1.7a100.7 100.7 0 011.7 3.4c.2.5.5.8 1 .8s.8-.3 1.1-.7a16 16 0 002.7-7.7c.2-.8.7-1.3 1.4-1.3.3 0 .6 0 .8.2 1.4.5 2.3 1.3 2.6 2.5a103.3 103.3 0 001.8 5.2v.1l1.3 3.8c.4 1.3 1.2 2.4 2.1 3.5.5.5.6 1 .6 1.2l-.2.6c-.2.2-.5.4-1 .4-.4 0-.8-.2-1.3-.6-1-.7-1.8-1.7-2.4-2.9a17.3 17.3 0 01-1.2-3.3l-.3-1-.4-1.2c-.2-.6-.6-.9-1.2-.9-.5 0-.9.2-1.2.6l-.6.9a6 6 0 00-.2 1l-.1.5-.2.5a51.4 51.4 0 00-.7 3.1c-.1.4-.2.6-.4.7l-.5.2h-.5c-1.2-.2-2-.8-2.7-1.8a27.4 27.4 0 00-1.5-2l-.3-.6-1-1c-.2-.2-.6-.3-.9-.3l-.9.3c-.2.3-.4.6-.4 1l-.2 1.8-.3 1.9-.1 1.2v.6c-.2 1.1-.7 1.7-1.4 1.7zM77.2 33.3a22.2 22.2 0 001.4 1.8c1.6 2.3 3.6 3.9 6 4.7 2.2.9 4.7 1.2 7.5 1a38.2 38.2 0 0014-4.1c1-.5 1.9-1.1 2.7-1.8l1.8-1.8c.6-.6 1.2-1.3 1.6-2 .5-.7 1-1 1.4-1 .4 0 1 .2 1.5.6.3.3.4.6.5.9l-.1.9c-.2.7-.6 1.3-1 1.8a23.1 23.1 0 01-7 5.8 33.6 33.6 0 01-13.9 4.5h-1a17.5 17.5 0 01-16.7-7.4c-.7-.8-1.1-1.8-1.4-3-.2-1.3.3-1.8 1.7-1.5.3 0 .7.2 1 .6z"/></g></svg>